<?xml version="1.0" encoding="UTF-8"?>
<svg id="Layer_2" data-name="Layer 2" xmlns="http://www.w3.org/2000/svg" viewBox="0 0 376.64 377.52">
  <defs>
    <style>
      .cls-1 {
        fill: #000;
        stroke-width: 0px;
      }
    </style>
  </defs>
  <rect class="cls-1" x="104.97" y="39.67" width="35.76" height="180.24"/>
  <polygon class="cls-1" points="272.08 221.79 225.85 221.79 157.14 129.79 203.38 129.79 272.08 221.79"/>
  <path class="cls-1" d="M270.41,129.79h-36.09c0-15.41-6.25-29.37-16.35-39.47-9.93-9.93-23.59-16.14-38.71-16.34v-34.31h1.03c49.77,0,90.12,40.35,90.12,90.12Z"/>
  <path class="cls-1" d="M77.69,273.45c1.91-1.91,3.1-4.56,3.1-7.48,0-5.85-4.74-10.59-10.59-10.59h-17.29v34.06h8.12v-12.89l9.61,12.89,9.92-.23-9.47-12.7c2.57-.21,4.88-1.35,6.6-3.06ZM61.03,261.82h7.32c2.29,0,4.15,1.86,4.15,4.15,0,1.15-.46,2.18-1.22,2.93-.75.75-1.78,1.21-2.93,1.21h-7.32v-8.29Z"/>
  <path class="cls-1" d="M117.11,255.38h-9.06l-12.47,34.06h8.89l2.11-7.11h12.47l2.06,7.11h9.65l-13.65-34.06ZM110.05,275.21l2.89-8.03,3.35,8.03h-6.24Z"/>
  <path class="cls-1" d="M309.64,255.38h-9.06l-12.47,34.06h8.89l2.11-7.11h12.47l2.06,7.11h9.65l-13.65-34.06ZM302.58,275.21l2.89-8.03,3.35,8.03h-6.24Z"/>
  <rect class="cls-1" x="166.47" y="255.38" width="8.82" height="34.06"/>
  <rect class="cls-1" x="144.47" y="255.38" width="8.82" height="34.06"/>
  <polygon class="cls-1" points="175.29 289.44 165.99 289.75 144.47 255.38 154.35 255.38 175.29 289.44"/>
  <path class="cls-1" d="M225.32,274.04l.06-.05v17.46h-9.44v-2.53c-2.78,1.61-6.01,2.53-9.45,2.53-10.42,0-18.88-8.46-18.88-18.89s8.46-18.88,18.88-18.88c6.42,0,12.09,3.21,15.5,8.1l-7.68,5.49c-1.7-2.51-4.57-4.15-7.82-4.15-5.21,0-9.44,4.23-9.44,9.44s4.23,9.45,9.44,9.45c2.71,0,5.15-1.14,6.87-2.97h-5.72v-7.95h17.68c.04.48.06.97.06,1.47s-.02.99-.06,1.48Z"/>
  <path class="cls-1" d="M275.09,274.04l.06-.05v17.46h-9.44v-2.53c-2.78,1.61-6.01,2.53-9.45,2.53-10.42,0-18.88-8.46-18.88-18.89s8.46-18.88,18.88-18.88c6.42,0,12.09,3.21,15.5,8.1l-7.68,5.49c-1.7-2.51-4.57-4.15-7.82-4.15-5.21,0-9.44,4.23-9.44,9.44s4.23,9.45,9.44,9.45c2.71,0,5.15-1.14,6.87-2.97h-5.72v-7.95h17.68c.04.48.06.97.06,1.47s-.02.99-.06,1.48Z"/>
  <path class="cls-1" d="M225.38,271.09v1.47c0-.5-.02-.99-.06-1.47h.06Z"/>
  <path class="cls-1" d="M225.32,274.04c.04-.49.06-.98.06-1.48v1.43l-.06.05Z"/>
  <path class="cls-1" d="M225.38,271.09v1.47c0-.5-.02-.99-.06-1.47h.06Z"/>
  <path class="cls-1" d="M225.32,274.04c.04-.49.06-.98.06-1.48v1.43l-.06.05Z"/>
  <path class="cls-1" d="M376.64,175.79h-4.87C365.11,80.27,285.53,4.86,188.32,4.86S11.53,80.27,4.87,175.79H0C6.66,77.59,88.43,0,188.32,0s181.66,77.59,188.32,175.79Z"/>
  <path class="cls-1" d="M369.03,243.45c-23.44,77.58-95.48,134.07-180.71,134.07S31.05,321.03,7.61,243.45h5.08c23.28,74.86,93.1,129.21,175.63,129.21s152.35-54.35,175.63-129.21h5.08Z"/>
</svg>